<svg xmlns="http://www.w3.org/2000/svg" xmlns:xlink="http://www.w3.org/1999/xlink" viewBox="0 0 184.39 88.79"><defs><style>.cls-1{fill:none;}.cls-2{isolation:isolate;}.cls-3{clip-path:url(#clip-path);}.cls-4{mix-blend-mode:multiply;}.cls-5{clip-path:url(#clip-path-2);}.cls-6{clip-path:url(#clip-path-3);}.cls-7{fill:#f07e22;}.cls-8{clip-path:url(#clip-path-4);}.cls-9{clip-path:url(#clip-path-5);}.cls-10{fill:#89c540;}.cls-11{clip-path:url(#clip-path-6);}.cls-12{clip-path:url(#clip-path-7);}.cls-13{fill:#fccf07;}.cls-14{opacity:0.95;}.cls-15{clip-path:url(#clip-path-8);}.cls-16{clip-path:url(#clip-path-9);}.cls-17{fill:#e9282e;}.cls-18{fill:#b2b1a3;}.cls-19{fill:#f27b21;}</style><clipPath id="clip-path" transform="translate(-13.7 -10.41)"><rect class="cls-1" x="-35.83" y="-16.07" width="283.46" height="141.73"/></clipPath><clipPath id="clip-path-2" transform="translate(-13.7 -10.41)"><rect class="cls-1" x="95.81" y="19.6" width="20.48" height="34.06"/></clipPath><clipPath id="clip-path-3" transform="translate(-13.7 -10.41)"><rect class="cls-1" x="95.81" y="19.6" width="20.48" height="34.06"/></clipPath><clipPath id="clip-path-4" transform="translate(-13.7 -10.41)"><rect class="cls-1" x="101.82" y="38.24" width="39.21" height="20.99"/></clipPath><clipPath id="clip-path-5" transform="translate(-13.7 -10.41)"><rect class="cls-1" x="101.82" y="38.24" width="39.21" height="20.99"/></clipPath><clipPath id="clip-path-6" transform="translate(-13.7 -10.41)"><rect class="cls-1" x="71.02" y="38.27" width="39.22" height="20.99"/></clipPath><clipPath id="clip-path-7" transform="translate(-13.7 -10.41)"><rect class="cls-1" x="71.02" y="38.27" width="39.22" height="20.99"/></clipPath><clipPath id="clip-path-8" transform="translate(-13.7 -10.41)"><rect class="cls-1" x="102.21" y="10.41" width="6.9" height="6.9"/></clipPath><clipPath id="clip-path-9" transform="translate(-13.7 -10.41)"><rect class="cls-1" x="102.2" y="10.41" width="6.9" height="6.89"/></clipPath></defs><title>Anahata_logo_Gray</title><g class="cls-2"><g id="Layer_1" data-name="Layer 1"><g class="cls-3"><g class="cls-4"><g class="cls-5"><g class="cls-6"><path class="cls-7" d="M106,53.66,104,52c-.33-.27-8.17-6.81-8.17-15.33S103.65,21.57,104,21.3L106,19.6l2.06,1.7c.33.27,8.17,6.82,8.17,15.33S108.44,51.69,108.11,52Zm0-25.25c-1.67,1.93-3.73,5-3.73,8.22s2.07,6.29,3.74,8.22c1.66-1.92,3.73-5,3.73-8.22s-2.07-6.29-3.73-8.22" transform="translate(-13.7 -10.41)"/></g></g></g><g class="cls-4"><g class="cls-8"><g class="cls-9"><path class="cls-10" d="M121,59.23c-9.08,0-16.42-6.76-16.74-7.06l-2.43-2.27L104,47.37c.29-.35,7.28-8.53,16.84-9.1h0c9.53-.56,17.47,6.71,17.8,7L141,47.57l-2.14,2.54c-.29.35-7.28,8.52-16.84,9.09-.36,0-.72,0-1.07,0M112,49.3c2.38,1.49,5.9,3.14,9.59,2.92s7-2.28,9.16-4c-2.38-1.49-5.91-3.15-9.58-2.92s-7,2.28-9.17,4" transform="translate(-13.7 -10.41)"/></g></g></g><g class="cls-4"><g class="cls-11"><g class="cls-12"><path class="cls-13" d="M91.08,59.25q-.53,0-1.07,0c-9.56-.57-16.55-8.75-16.84-9.09L71,47.59l2.43-2.27c.33-.31,8.24-7.59,17.81-7h0c9.55.57,16.55,8.74,16.84,9.09l2.14,2.54-2.43,2.27c-.32.3-7.66,7.06-16.73,7.06M81.25,48.2c2.19,1.76,5.49,3.82,9.17,4s7.2-1.43,9.59-2.92c-2.19-1.76-5.49-3.82-9.17-4s-7.2,1.43-9.59,2.92" transform="translate(-13.7 -10.41)"/></g></g></g><g class="cls-14"><g class="cls-15"><g class="cls-16"><path class="cls-17" d="M109.1,13.85a3.45,3.45,0,1,1-3.44-3.45,3.45,3.45,0,0,1,3.44,3.45" transform="translate(-13.7 -10.41)"/></g></g></g><path class="cls-17" d="M106,45.29s3.92,3.79,4.22,4.64a33.5,33.5,0,0,1-4.17,3.74s-3.36-2.46-4.22-3.77c0,0,3.06-3.91,4.16-4.61" transform="translate(-13.7 -10.41)"/><path class="cls-18" d="M21.35,79.93a1.06,1.06,0,0,1,1.05-.69,1.28,1.28,0,0,1,.45.09,1.07,1.07,0,0,1,.6.6L31,97.61a1.36,1.36,0,0,1,.1.48,1.17,1.17,0,0,1-.3.75,1,1,0,0,1-.81.36,1.06,1.06,0,0,1-1.05-.69l-2.13-5H18l-2.14,5a1.12,1.12,0,0,1-1,.69,1,1,0,0,1-.81-.36,1.15,1.15,0,0,1-.3-.75,1.26,1.26,0,0,1,.09-.48Zm1.05,3.3-3.45,8h6.88Z" transform="translate(-13.7 -10.41)"/><path class="cls-18" d="M44.49,86.35a6.81,6.81,0,0,1,.57-2.76,7.21,7.21,0,0,1,3.8-3.78,7,7,0,0,1,5.55,0,7.56,7.56,0,0,1,2.28,1.53,7.33,7.33,0,0,1,1.54,2.25,6.76,6.76,0,0,1,.57,2.76V98a1.13,1.13,0,0,1-1.93.81,1.07,1.07,0,0,1-.35-.81V86.35a4.64,4.64,0,0,0-.39-1.88,5,5,0,0,0-1-1.53,5.25,5.25,0,0,0-1.57-1,4.83,4.83,0,0,0-3.79,0,5.33,5.33,0,0,0-1.54,1,4.61,4.61,0,0,0-1,1.53,4.77,4.77,0,0,0-.37,1.88V98a1.13,1.13,0,0,1-1.94.81,1.07,1.07,0,0,1-.35-.81Z" transform="translate(-13.7 -10.41)"/><path class="cls-18" d="M79.88,79.93a1,1,0,0,1,1-.69,1.29,1.29,0,0,1,.45.09,1.11,1.11,0,0,1,.6.6l7.56,17.67a1.34,1.34,0,0,1,.09.48,1.18,1.18,0,0,1-.3.75,1,1,0,0,1-.81.36,1.05,1.05,0,0,1-1.05-.69l-2.13-5H76.52l-2.13,5A1.17,1.17,0,0,1,74,99a1.15,1.15,0,0,1-.62.17,1,1,0,0,1-.81-.36,1.17,1.17,0,0,1-.3-.75,1.33,1.33,0,0,1,.09-.48Zm1,3.3-3.45,8h6.88Z" transform="translate(-13.7 -10.41)"/><path class="cls-18" d="M103.13,80.5a1.09,1.09,0,0,1,.35-.81,1.11,1.11,0,0,1,.79-.33,1.09,1.09,0,0,1,.81.33,1.11,1.11,0,0,1,.34.81v7.93h9.75V80.5a1.08,1.08,0,0,1,.35-.81,1.13,1.13,0,0,1,1.93.81V98a1.08,1.08,0,0,1-.34.81,1.12,1.12,0,0,1-.8.34A1.13,1.13,0,0,1,115.17,98V90.71h-9.75V98a1.07,1.07,0,0,1-.35.81,1.12,1.12,0,0,1-.8.34,1.07,1.07,0,0,1-.8-.34,1.09,1.09,0,0,1-.33-.81Z" transform="translate(-13.7 -10.41)"/><path class="cls-18" d="M138.67,79.93a1,1,0,0,1,1.05-.69,1.33,1.33,0,0,1,.45.09,1.1,1.1,0,0,1,.6.6l7.56,17.67a1.32,1.32,0,0,1,.09.48,1.17,1.17,0,0,1-.3.75,1,1,0,0,1-.81.36,1,1,0,0,1-1-.69l-2.13-5H135.3l-2.13,5a1.12,1.12,0,0,1-1.05.69,1,1,0,0,1-.81-.36,1.15,1.15,0,0,1-.3-.75,1.34,1.34,0,0,1,.09-.48Zm1.05,3.3-3.46,8h6.88Z" transform="translate(-13.7 -10.41)"/><path class="cls-18" d="M158.53,81.64a1.09,1.09,0,0,1-.81-.33,1.07,1.07,0,0,1-.33-.81,1.1,1.1,0,0,1,.33-.79,1.08,1.08,0,0,1,.81-.34h12a1.12,1.12,0,0,1,1.14,1.14,1.13,1.13,0,0,1-.33.8,1.09,1.09,0,0,1-.81.34h-4.89V98a1.14,1.14,0,0,1-1.14,1.14,1.1,1.1,0,0,1-.8-.34,1.06,1.06,0,0,1-.35-.81V81.64Z" transform="translate(-13.7 -10.41)"/><path class="cls-18" d="M188.34,79.93a1.06,1.06,0,0,1,1-.69,1.31,1.31,0,0,1,.45.09,1.09,1.09,0,0,1,.6.6L198,97.61a1.33,1.33,0,0,1,.09.48,1.17,1.17,0,0,1-.3.75,1,1,0,0,1-.81.36,1.06,1.06,0,0,1-1.05-.69l-2.13-5H185l-2.13,5a1.12,1.12,0,0,1-1.05.69,1,1,0,0,1-.81-.36,1.15,1.15,0,0,1-.3-.75,1.34,1.34,0,0,1,.09-.48Zm1,3.3-3.45,8h6.87Z" transform="translate(-13.7 -10.41)"/><rect class="cls-19" x="63.28" y="65.09" width="8.49" height="1.2"/></g></g></g></svg>